HIERARCHY
ROOT Hips
{
	OFFSET 0.00 0.00 0.00
	CHANNELS 6 Xposition Yposition Zposition Xrotation Yrotation Zrotation
	JOINT RightUpLeg
	{
		OFFSET -3.76699 0.00000 0.00000
		CHANNELS 3 Xrotation Yrotation Zrotation
		JOINT RightLeg
		{
			OFFSET 0.00000 -18.01768 0.00000
			CHANNELS 3 Xrotation Yrotation Zrotation
			JOINT RightFoot
			{
				OFFSET 0.00000 -16.88108 0.00000
				CHANNELS 3 Xrotation Yrotation Zrotation
				JOINT RightToeBase
				{
					OFFSET 0.00000 -1.49359 5.57418
					CHANNELS 3 Xrotation Yrotation Zrotation
					End Site
					{
						OFFSET 0.00000 0.00000 2.95275
					}
				}
			}
		}
	}
	JOINT LeftUpLeg
	{
		OFFSET 3.76699 0.00000 0.00000
		CHANNELS 3 Xrotation Yrotation Zrotation
		JOINT LeftLeg
		{
			OFFSET 0.00000 -18.01768 0.00000
			CHANNELS 3 Xrotation Yrotation Zrotation
			JOINT LeftFoot
			{
				OFFSET 0.00000 -16.88108 0.00000
				CHANNELS 3 Xrotation Yrotation Zrotation
				JOINT LeftToeBase
				{
					OFFSET 0.00000 -1.49359 5.57418
					CHANNELS 3 Xrotation Yrotation Zrotation
					End Site
					{
						OFFSET 0.00000 0.00000 2.95275
					}
				}
			}
		}
	}
	JOINT Spine
	{
		OFFSET 0.00000 7.77970 0.00000
		CHANNELS 3 Xrotation Yrotation Zrotation
		JOINT RightShoulder
		{
			OFFSET 0.00000 10.94176 0.00000
			CHANNELS 3 Xrotation Yrotation Zrotation
			JOINT RightArm
			{
				OFFSET -7.70894 0.00000 0.00000
				CHANNELS 3 Xrotation Yrotation Zrotation
				JOINT RightForeArm
				{
					OFFSET -11.52135 0.00000 0.00000
					CHANNELS 3 Yrotation Zrotation Xrotation
					JOINT RightHand
					{
						OFFSET -10.17590 0.00000 0.00000
						CHANNELS 3 Xrotation Yrotation Zrotation
						End Site
						{
							OFFSET -3.93700 0.00000 0.00000
						}
						JOINT RightHandThumb1
						{
							OFFSET 0.00000 0.00000 0.00000
							CHANNELS 3 Xrotation Zrotation Yrotation
							End Site
							{
								OFFSET 0.00000 0.00000 3.93700
							}
						}
					}
				}
			}
		}
		JOINT LeftShoulder
		{
			OFFSET 0.00000 10.94176 0.00000
			CHANNELS 3 Xrotation Yrotation Zrotation
			JOINT LeftArm
			{
				OFFSET 7.70894 0.00000 0.00000
				CHANNELS 3 Xrotation Yrotation Zrotation
				JOINT LeftForeArm
				{
					OFFSET 11.52135 0.00000 0.00000
					CHANNELS 3 Yrotation Zrotation Xrotation
					JOINT LeftHand
					{
						OFFSET 10.17590 0.00000 0.00000
						CHANNELS 3 Xrotation Yrotation Zrotation
						End Site
						{
							OFFSET 3.93700 0.00000 0.00000
						}
						JOINT LeftHandThumb1
						{
							OFFSET 0.00000 0.00000 0.00000
							CHANNELS 3 Xrotation Zrotation Yrotation
							End Site
							{
								OFFSET 0.00000 0.00000 3.93700
							}
						}
					}
				}
			}
		}
		JOINT Head
		{
			OFFSET 0.00000 16.64604 0.00000
			CHANNELS 3 Xrotation Yrotation Zrotation
			End Site
			{
				OFFSET 0.00000 4.52755 0.00000
			}
		}
	}
}
MOTION
Frames: 23
Frame Time: 0.008333
 3.8473 37.1806 2.8951 -0.7256 -2.2685 2.1900 7.9712 -10.6928 -4.5773 -5.3917 0.0000 0.0000 -6.5037 -22.0205 9.9561 14.8591 0.0000 0.0000 7.8118 2.4518 0.4761 -3.4440 -0.0000 0.0000 -4.6304 22.0159 -10.8221 10.1815 -0.0000 0.0000 5.0766 -3.2743 -3.3621 2.2073 -6.3204 -29.0480 -35.4137 -10.8355 23.0378 15.6268 0.0000 6.1436 -0.0432 0.2406 10.1821 32.8623 0.0000 -24.3270 21.6955 30.6988 18.9316 -57.2674 0.1357 -25.5760 -4.4163 0.0000 42.6480 2.2107 16.1295 -7.9109 33.1476 -0.0000 26.2537 -15.7017 11.7598 5.0903
 3.8494 37.1805 2.8960 -0.7336 -2.2644 2.1993 7.9767 -10.6828 -4.5856 -5.3789 0.0000 -0.0000 -6.5049 -22.0794 10.0328 14.8346 -0.0000 0.0000 7.8131 2.4145 0.4700 -3.4227 -0.0000 -0.0000 -4.6217 21.9954 -10.7574 10.1105 0.0000 0.0000 5.0872 -3.2893 -3.3751 2.2082 -6.3306 -29.0351 -35.4251 -10.8086 23.0403 15.6458 0.0000 6.1436 -0.0403 0.2248 10.1692 32.8623 0.0000 -24.3270 21.6962 30.7238 18.9358 -57.2880 0.1292 -25.5964 -4.4324 0.0000 42.6542 2.2181 16.1425 -7.9311 33.1476 -0.0000 26.2537 -15.6816 11.6849 5.0711
 3.8517 37.1799 2.8971 -0.7413 -2.2691 2.2047 7.9832 -10.6742 -4.6015 -5.3768 0.0000 0.0000 -6.5049 -22.0538 9.9985 14.7570 -0.0000 0.0000 7.8230 2.3887 0.4627 -3.4188 0.0000 0.0000 -4.6330 22.0170 -10.7710 10.1095 0.0000 -0.0000 5.0937 -3.2906 -3.3796 2.2102 -6.3306 -29.0349 -35.4214 -10.7994 23.0410 15.6663 0.0000 6.1463 -0.0381 0.2125 10.1670 32.8623 0.0000 -24.3270 21.6980 30.7344 18.9435 -57.2886 0.1299 -25.6133 -4.4532 0.0000 42.6640 2.2141 16.1656 -7.9060 33.1476 -0.0000 26.2537 -15.6593 11.6736 5.0718
 3.8534 37.1795 2.8978 -0.7457 -2.2641 2.2056 7.9848 -10.6855 -4.6047 -5.3743 0.0000 0.0000 -6.5257 -22.0379 9.9508 14.8831 0.0000 -0.0000 7.8285 2.3796 0.4597 -3.4194 -0.0000 0.0000 -4.6408 22.0200 -10.7602 10.1196 0.0000 -0.0000 5.0966 -3.2925 -3.3753 2.2028 -6.3256 -29.0448 -35.4185 -10.8243 23.0402 15.7163 0.0000 6.1818 -0.0322 0.1796 10.1773 32.8623 0.0000 -24.3270 21.7176 30.7366 18.9373 -57.3112 0.1310 -25.6229 -4.4731 0.0000 42.6781 2.2150 16.1842 -7.9004 33.1476 -0.0000 26.2537 -15.6394 11.6874 5.0699
 3.8547 37.1792 2.8989 -0.7484 -2.2660 2.2011 7.9887 -10.6743 -4.5983 -5.3688 -0.0000 -0.0000 -6.5163 -22.0870 10.0221 14.8287 0.0000 -0.0000 7.8309 2.3930 0.4615 -3.4157 -0.0000 -0.0000 -4.6464 22.0132 -10.7697 10.1151 -0.0000 -0.0000 5.0970 -3.2967 -3.3617 2.2124 -6.3312 -29.0538 -35.4450 -10.8298 23.0423 15.7460 0.0000 6.2254 -0.0292 0.1632 10.1553 32.8623 0.0000 -24.3270 21.7312 30.7406 18.9187 -57.3251 0.1196 -25.6251 -4.4790 0.0000 42.6815 2.2150 16.2202 -7.8836 33.1476 -0.0000 26.2537 -15.6210 11.6988 5.0539
 3.8573 37.1788 2.9005 -0.7539 -2.2710 2.2084 7.9868 -10.6874 -4.6162 -5.3592 0.0000 0.0000 -6.5354 -22.0329 9.9592 14.8377 0.0000 0.0000 7.8526 2.4217 0.4447 -3.4400 0.0000 -0.0000 -4.6363 21.9956 -10.7532 10.1235 -0.0000 0.0000 5.0990 -3.2958 -3.3632 2.2177 -6.3265 -29.0573 -35.4441 -10.8351 23.0339 15.7705 0.0000 6.2246 -0.0297 0.1658 10.1437 32.8623 0.0000 -24.3270 21.7388 30.7478 18.9135 -57.3336 0.1120 -25.6385 -4.4910 0.0000 42.7087 2.2167 16.2780 -7.8628 33.1476 -0.0000 26.2537 -15.6048 11.7075 5.0537
 3.8582 37.1783 2.9011 -0.7532 -2.2732 2.2031 7.9926 -10.6650 -4.6151 -5.3666 0.0000 0.0000 -6.5303 -22.0438 9.9691 14.8578 0.0000 0.0000 7.8465 2.4060 0.4517 -3.4267 0.0000 -0.0000 -4.6537 22.0068 -10.7573 10.1002 0.0000 -0.0000 5.0970 -3.2958 -3.3476 2.2226 -6.3322 -29.0767 -35.4320 -10.8338 23.0441 15.7904 0.0000 6.2064 -0.0303 0.1698 10.1189 32.8623 0.0000 -24.3270 21.7871 30.7877 18.8880 -57.4013 0.1034 -25.6792 -4.4974 0.0000 42.7036 2.1503 16.1951 -7.6672 33.1476 -0.0000 26.2537 -15.5871 11.7226 5.0366
 3.8604 37.1782 2.9015 -0.7502 -2.2750 2.2053 7.9885 -10.6690 -4.6190 -5.3656 -0.0000 -0.0000 -6.5195 -22.0500 9.9862 14.8226 0.0000 0.0000 7.8466 2.3989 0.4487 -3.4312 0.0000 0.0000 -4.6466 22.0049 -10.7615 10.1127 -0.0000 -0.0000 5.0899 -3.2989 -3.3458 2.2512 -6.3521 -29.0656 -35.4322 -10.7943 23.0391 15.8029 0.0000 6.1715 -0.0098 0.0546 10.1624 32.8623 0.0000 -24.3270 21.7706 30.7735 18.8877 -57.3639 0.0925 -25.6683 -4.5106 0.0000 42.7164 2.2139 16.2940 -7.8454 33.1476 -0.0000 26.2537 -15.5743 11.7434 5.0454
 3.8612 37.1775 2.9018 -0.7433 -2.2801 2.2068 8.0055 -10.6224 -4.6196 -5.4054 0.0000 0.0000 -6.4992 -22.1170 10.0428 14.8296 0.0000 -0.0000 7.8465 2.3962 0.4450 -3.4415 -0.0000 0.0000 -4.6530 22.0219 -10.7731 10.1099 0.0000 -0.0000 5.0762 -3.2815 -3.3475 2.2644 -6.3656 -29.0661 -35.4357 -10.7924 23.0335 15.8022 0.0000 6.1581 -0.0126 0.0703 10.1497 32.8623 0.0000 -24.3270 21.7664 30.7687 18.9011 -57.3608 0.0899 -25.6829 -4.5237 0.0000 42.7240 2.2124 16.2616 -7.8552 33.1476 -0.0000 26.2537 -15.5490 11.7292 5.0616
 3.8639 37.1777 2.9028 -0.7407 -2.2779 2.2036 7.9871 -10.6727 -4.6192 -5.3794 0.0000 0.0000 -6.5047 -22.0732 10.0481 14.8434 0.0000 0.0000 7.8523 2.3792 0.4435 -3.4563 -0.0000 -0.0000 -4.6456 22.0366 -10.7604 10.1006 0.0000 0.0000 5.0643 -3.2785 -3.3258 2.2653 -6.3677 -29.0869 -35.4430 -10.7994 23.0301 15.8082 0.0000 6.1738 -0.0158 0.0883 10.1396 32.8623 0.0000 -24.3270 21.7756 30.7563 18.8843 -57.3617 0.0839 -25.6887 -4.5304 0.0000 42.7235 2.2280 16.2429 -7.9188 33.1476 -0.0000 26.2537 -15.5281 11.8191 5.0694
 3.8646 37.1767 2.9031 -0.7339 -2.2849 2.2079 8.0146 -10.6036 -4.6246 -5.4396 -0.0000 0.0000 -6.4886 -22.1180 10.0099 14.8716 -0.0000 -0.0000 7.8476 2.4163 0.4372 -3.4589 0.0000 0.0000 -4.6508 22.0049 -10.7611 10.1286 0.0000 -0.0000 5.0570 -3.2667 -3.3282 2.2573 -6.3799 -29.0927 -35.4641 -10.8106 23.0255 15.8165 0.0000 6.2363 -0.0241 0.1346 10.1642 32.8623 0.0000 -24.3270 21.7964 30.7923 18.8867 -57.4191 0.0931 -25.7380 -4.5502 0.0000 42.7187 2.1674 16.1408 -7.7523 33.1476 -0.0000 26.2537 -15.5232 11.7682 5.0442
 3.8685 37.1770 2.9040 -0.7322 -2.2924 2.2121 7.9796 -10.6730 -4.6343 -5.3894 -0.0000 0.0000 -6.5124 -22.0562 10.0116 14.8475 0.0000 -0.0000 7.8572 2.4147 0.4254 -3.4770 0.0000 -0.0000 -4.6411 22.0144 -10.7565 10.1416 -0.0000 0.0000 5.0498 -3.2576 -3.3221 2.2502 -6.3769 -29.0950 -35.4436 -10.7997 23.0092 15.8164 0.0000 6.1933 -0.0264 0.1472 10.1521 32.8623 0.0000 -24.3270 21.7848 30.7744 18.8791 -57.3842 0.0806 -25.7339 -4.5585 0.0000 42.7348 2.2286 16.2203 -7.9313 33.1476 -0.0000 26.2537 -15.5159 11.7841 5.0441
 3.8714 37.1769 2.9048 -0.7302 -2.2877 2.2169 7.9775 -10.6964 -4.6419 -5.3952 0.0000 -0.0000 -6.5140 -22.0463 9.9916 14.8572 0.0000 -0.0000 7.8595 2.4014 0.4178 -3.4826 -0.0000 -0.0000 -4.6379 22.0131 -10.7587 10.1256 0.0000 -0.0000 5.0469 -3.2561 -3.3121 2.2324 -6.3976 -29.1080 -35.4547 -10.7901 23.0125 15.8241 0.0000 6.2059 -0.0275 0.1535 10.1407 32.8623 0.0000 -24.3270 21.8158 30.8000 18.8535 -57.4327 0.0735 -25.7705 -4.5760 0.0000 42.7278 2.1799 16.1285 -7.8023 33.1476 -0.0000 26.2537 -15.5169 11.7957 5.0233
 3.8732 37.1769 2.9052 -0.7281 -2.2908 2.2171 7.9776 -10.6922 -4.6451 -5.3978 0.0000 -0.0000 -6.5047 -22.0496 10.0102 14.8570 0.0000 -0.0000 7.8636 2.3935 0.4149 -3.4923 -0.0000 0.0000 -4.6376 22.0282 -10.7665 10.1697 0.0000 -0.0000 5.0402 -3.2561 -3.3088 2.2363 -6.3879 -29.1049 -35.4652 -10.8003 22.9921 15.8197 0.0000 6.1843 -0.0463 0.2608 10.0741 32.8623 0.0000 -24.3270 21.7950 30.7792 18.8644 -57.3763 0.0889 -25.7643 -4.6136 0.0000 42.7539 2.2334 16.1903 -7.9624 33.1476 -0.0000 26.2537 -15.5164 11.8182 5.0424
 3.8739 37.1763 2.9046 -0.7201 -2.2947 2.2164 8.0189 -10.6002 -4.6460 -5.4816 0.0000 -0.0000 -6.4553 -22.1238 10.0427 14.8363 0.0000 -0.0000 7.8527 2.4148 0.4145 -3.4880 -0.0000 -0.0000 -4.6401 22.0110 -10.7643 10.1056 0.0000 -0.0000 5.0300 -3.2454 -3.3091 2.1474 -6.3153 -29.1351 -35.3677 -10.8746 22.9878 15.8542 0.0000 6.1900 -0.0487 0.2747 10.0586 32.8623 0.0000 -24.3270 21.7962 30.7783 18.8783 -57.3714 0.1029 -25.7826 -4.6311 0.0000 42.7523 2.2361 16.1953 -7.9696 33.1476 -0.0000 26.2537 -15.5159 11.8162 5.0524
 3.8763 37.1767 2.9050 -0.7074 -2.2981 2.2123 8.0084 -10.5972 -4.6439 -5.4870 0.0000 -0.0000 -6.4342 -22.1442 10.0959 14.8184 0.0000 -0.0000 7.8427 2.4149 0.4165 -3.4903 -0.0000 -0.0000 -4.6385 22.0090 -10.7685 10.1225 -0.0000 0.0000 5.0119 -3.2445 -3.2859 2.2140 -6.3921 -29.1162 -35.5010 -10.8209 22.9765 15.8440 0.0000 6.2486 -0.0604 0.3445 9.9481 32.8623 0.0000 -24.3270 21.8184 30.7852 18.8350 -57.3759 0.0822 -25.7886 -4.6424 0.0000 42.7707 2.2355 16.1903 -7.9699 33.1476 -0.0000 26.2537 -15.5155 11.8265 5.0287
 3.8815 37.1764 2.9061 -0.7153 -2.3000 2.2256 7.9553 -10.7264 -4.6655 -5.3957 -0.0000 -0.0000 -6.5020 -22.0268 10.0281 14.8343 0.0000 -0.0000 7.8593 2.4099 0.3938 -3.5009 0.0000 -0.0000 -4.6388 22.0172 -10.7588 10.1192 -0.0000 -0.0000 5.0197 -3.2400 -3.2872 2.1337 -6.3221 -29.1544 -35.4076 -10.8952 22.9678 15.8912 0.0000 6.2843 -0.0609 0.3486 9.9028 32.8623 0.0000 -24.3270 21.8211 30.7885 18.8248 -57.3735 0.0757 -25.8123 -4.6535 0.0000 42.7694 2.2314 16.2067 -7.9476 33.1476 -0.0000 26.2537 -15.5250 11.8522 5.0370
 3.8807 37.1767 2.9044 -0.7050 -2.2981 2.2209 7.9917 -10.6224 -4.6601 -5.4719 0.0000 -0.0000 -6.4492 -22.1168 10.0618 14.8221 -0.0000 0.0000 7.8413 2.4058 0.4024 -3.4915 -0.0000 0.0000 -4.6380 22.0112 -10.7721 10.1206 0.0000 -0.0000 5.0151 -3.2432 -3.2794 2.1869 -6.3941 -29.1316 -35.5100 -10.8505 22.9712 15.8888 0.0000 6.2817 -0.0600 0.3443 9.8801 32.8623 0.0000 -24.3270 21.8221 30.7995 18.8038 -57.3762 0.0584 -25.8210 -4.6653 0.0000 42.7844 2.2119 16.2033 -7.8806 33.1476 -0.0000 26.2537 -15.5572 11.8518 5.0241
 3.8835 37.1763 2.9048 -0.6985 -2.3018 2.2225 7.9858 -10.6248 -4.6674 -5.4752 0.0000 0.0000 -6.4435 -22.1108 10.0841 14.8493 -0.0000 0.0000 7.8399 2.4081 0.3967 -3.5003 0.0000 -0.0000 -4.6365 22.0112 -10.7621 10.1168 0.0000 0.0000 5.0057 -3.2305 -3.2696 2.1952 -6.4196 -29.1324 -35.5231 -10.8331 22.9657 15.8840 0.0000 6.2985 -0.0638 0.3675 9.8515 32.8623 0.0000 -24.3270 21.8112 30.7864 18.8014 -57.3692 0.0628 -25.8321 -4.6719 0.0000 42.8267 2.2069 16.1915 -7.8684 33.1476 -0.0000 26.2537 -15.5515 11.8211 5.0202
 3.8886 37.1762 2.9059 -0.7058 -2.3004 2.2397 7.9400 -10.7312 -4.6925 -5.3930 0.0000 0.0000 -6.4999 -22.0064 10.0400 14.8542 -0.0000 0.0000 7.8480 2.4002 0.3704 -3.4969 -0.0000 -0.0000 -4.6384 22.0196 -10.7674 10.1331 -0.0000 0.0000 5.0110 -3.2369 -3.2742 2.2022 -6.4238 -29.1409 -35.5292 -10.8279 22.9633 15.8796 0.0000 6.2854 -0.0654 0.3776 9.8335 32.8623 0.0000 -24.3270 21.8249 30.7851 18.7792 -57.3970 0.0836 -25.8380 -4.6946 0.0000 42.8702 2.2110 16.2080 -7.8751 33.1476 -0.0000 26.2537 -15.5609 11.8403 5.0198
 3.8885 37.1758 2.9050 -0.7041 -2.3059 2.2304 7.9865 -10.6242 -4.6838 -5.4723 0.0000 -0.0000 -6.4322 -22.1146 10.1242 14.8212 0.0000 -0.0000 7.8412 2.4165 0.3802 -3.4881 -0.0000 0.0000 -4.6589 22.0060 -10.7589 10.1632 -0.0000 0.0000 5.0127 -3.2251 -3.2648 2.1150 -6.3527 -29.1562 -35.3828 -10.8572 22.9514 15.8895 0.0000 6.2512 -0.0685 0.3943 9.8511 32.8623 0.0000 -24.3270 21.8280 30.7849 18.7763 -57.4092 0.0812 -25.8499 -4.6872 0.0000 42.8360 2.1589 16.2057 -7.6927 33.1476 -0.0000 26.2537 -15.5739 11.8247 5.0307
 3.8926 37.1762 2.9059 -0.7099 -2.2960 2.2413 7.9423 -10.7365 -4.6991 -5.3926 0.0000 0.0000 -6.4863 -22.0268 10.0713 14.7898 -0.0000 0.0000 7.8490 2.4027 0.3628 -3.4934 -0.0000 -0.0000 -4.6439 22.0164 -10.7665 10.1515 0.0000 0.0000 5.0199 -3.2410 -3.2603 2.1729 -6.4115 -29.1394 -35.4823 -10.8183 22.9459 15.8904 0.0000 6.2761 -0.0665 0.3831 9.8417 32.8623 0.0000 -24.3270 21.8576 30.7943 18.7349 -57.4227 0.0694 -25.8532 -4.6927 0.0000 42.8092 2.1667 16.1568 -7.7428 33.1476 -0.0000 26.2537 -15.6016 11.8463 5.0054
 3.8948 37.1763 2.9061 -0.7164 -2.2931 2.2450 7.9396 -10.7558 -4.7076 -5.3782 0.0000 0.0000 -6.4934 -22.0023 10.0556 14.7799 0.0000 -0.0000 7.8527 2.4164 0.3558 -3.4875 -0.0000 0.0000 -4.6396 21.9945 -10.7732 10.1482 0.0000 0.0000 5.0295 -3.2526 -3.2587 2.1896 -6.4225 -29.1307 -35.4906 -10.8036 22.9450 15.9047 0.0000 6.2730 -0.0646 0.3736 9.8166 32.8623 0.0000 -24.3270 21.8332 30.7770 18.7355 -57.3846 0.0817 -25.8422 -4.6974 0.0000 42.8217 2.2371 16.1457 -7.9967 33.1476 -0.0000 26.2537 -15.6244 11.8503 5.0116
